<mxfile host="Electron" agent="Mozilla/5.0 (X11; Linux x86_64) AppleWebKit/537.36 (KHTML, like Gecko) draw.io/24.7.8 Chrome/128.0.6613.36 Electron/32.0.1 Safari/537.36" version="24.7.8">
  <diagram id="C5RBs43oDa-KdzZeNtuy" name="Page-1">
    <mxGraphModel dx="1114" dy="658" grid="1" gridSize="10" guides="1" tooltips="1" connect="1" arrows="1" fold="1" page="1" pageScale="1" pageWidth="827" pageHeight="1169" math="0" shadow="0">
      <root>
        <mxCell id="WIyWlLk6GJQsqaUBKTNV-0" />
        <mxCell id="WIyWlLk6GJQsqaUBKTNV-1" parent="WIyWlLk6GJQsqaUBKTNV-0" />
        <mxCell id="WIyWlLk6GJQsqaUBKTNV-2" value="" style="rounded=0;html=1;jettySize=auto;orthogonalLoop=1;fontSize=11;endArrow=block;endFill=0;endSize=8;strokeWidth=1;shadow=0;labelBackgroundColor=none;edgeStyle=orthogonalEdgeStyle;" parent="WIyWlLk6GJQsqaUBKTNV-1" source="WIyWlLk6GJQsqaUBKTNV-3" edge="1">
          <mxGeometry relative="1" as="geometry">
            <mxPoint x="220" y="170" as="targetPoint" />
          </mxGeometry>
        </mxCell>
        <mxCell id="WIyWlLk6GJQsqaUBKTNV-3" value="ศึกษาและค้นคว้าข้อมูล" style="rounded=1;whiteSpace=wrap;html=1;fontSize=12;glass=0;strokeWidth=1;shadow=0;" parent="WIyWlLk6GJQsqaUBKTNV-1" vertex="1">
          <mxGeometry x="140" y="100" width="170" height="40" as="geometry" />
        </mxCell>
        <mxCell id="4SC3pZGxrb-5CBrwp-Ay-2" style="edgeStyle=orthogonalEdgeStyle;rounded=0;orthogonalLoop=1;jettySize=auto;html=1;entryX=0.5;entryY=0;entryDx=0;entryDy=0;" edge="1" parent="WIyWlLk6GJQsqaUBKTNV-1" source="4SC3pZGxrb-5CBrwp-Ay-0" target="4SC3pZGxrb-5CBrwp-Ay-1">
          <mxGeometry relative="1" as="geometry" />
        </mxCell>
        <mxCell id="4SC3pZGxrb-5CBrwp-Ay-0" value="วางแผนการดำเนินงาน โครงสร้างระบบและอุปกรณ์ที่ต้องใช้" style="rounded=1;whiteSpace=wrap;html=1;" vertex="1" parent="WIyWlLk6GJQsqaUBKTNV-1">
          <mxGeometry x="135" y="170" width="170" height="60" as="geometry" />
        </mxCell>
        <mxCell id="4SC3pZGxrb-5CBrwp-Ay-9" style="edgeStyle=orthogonalEdgeStyle;rounded=0;orthogonalLoop=1;jettySize=auto;html=1;entryX=0.5;entryY=0;entryDx=0;entryDy=0;" edge="1" parent="WIyWlLk6GJQsqaUBKTNV-1" source="4SC3pZGxrb-5CBrwp-Ay-1" target="4SC3pZGxrb-5CBrwp-Ay-3">
          <mxGeometry relative="1" as="geometry" />
        </mxCell>
        <mxCell id="4SC3pZGxrb-5CBrwp-Ay-1" value="จัดซื้ออุปกรณ์" style="rounded=1;whiteSpace=wrap;html=1;" vertex="1" parent="WIyWlLk6GJQsqaUBKTNV-1">
          <mxGeometry x="140" y="260" width="160" height="30" as="geometry" />
        </mxCell>
        <mxCell id="4SC3pZGxrb-5CBrwp-Ay-10" style="edgeStyle=orthogonalEdgeStyle;rounded=0;orthogonalLoop=1;jettySize=auto;html=1;entryX=0.5;entryY=0;entryDx=0;entryDy=0;" edge="1" parent="WIyWlLk6GJQsqaUBKTNV-1" source="4SC3pZGxrb-5CBrwp-Ay-3" target="4SC3pZGxrb-5CBrwp-Ay-4">
          <mxGeometry relative="1" as="geometry" />
        </mxCell>
        <mxCell id="4SC3pZGxrb-5CBrwp-Ay-3" value="ออกแบบระบบการทำงาน" style="rounded=1;whiteSpace=wrap;html=1;" vertex="1" parent="WIyWlLk6GJQsqaUBKTNV-1">
          <mxGeometry x="140" y="320" width="160" height="30" as="geometry" />
        </mxCell>
        <mxCell id="4SC3pZGxrb-5CBrwp-Ay-6" style="edgeStyle=orthogonalEdgeStyle;rounded=0;orthogonalLoop=1;jettySize=auto;html=1;entryX=0.5;entryY=0;entryDx=0;entryDy=0;" edge="1" parent="WIyWlLk6GJQsqaUBKTNV-1" source="4SC3pZGxrb-5CBrwp-Ay-4" target="4SC3pZGxrb-5CBrwp-Ay-5">
          <mxGeometry relative="1" as="geometry" />
        </mxCell>
        <mxCell id="4SC3pZGxrb-5CBrwp-Ay-4" value="ประกอบอุปกรณ์" style="rounded=1;whiteSpace=wrap;html=1;" vertex="1" parent="WIyWlLk6GJQsqaUBKTNV-1">
          <mxGeometry x="140" y="380" width="160" height="30" as="geometry" />
        </mxCell>
        <mxCell id="4SC3pZGxrb-5CBrwp-Ay-11" style="edgeStyle=orthogonalEdgeStyle;rounded=0;orthogonalLoop=1;jettySize=auto;html=1;entryX=0.5;entryY=0;entryDx=0;entryDy=0;" edge="1" parent="WIyWlLk6GJQsqaUBKTNV-1" source="4SC3pZGxrb-5CBrwp-Ay-5" target="4SC3pZGxrb-5CBrwp-Ay-7">
          <mxGeometry relative="1" as="geometry" />
        </mxCell>
        <mxCell id="4SC3pZGxrb-5CBrwp-Ay-5" value="ทดสอบและรวบรวมผลการทำงาน" style="rounded=1;whiteSpace=wrap;html=1;" vertex="1" parent="WIyWlLk6GJQsqaUBKTNV-1">
          <mxGeometry x="140" y="450" width="160" height="30" as="geometry" />
        </mxCell>
        <mxCell id="4SC3pZGxrb-5CBrwp-Ay-12" style="edgeStyle=orthogonalEdgeStyle;rounded=0;orthogonalLoop=1;jettySize=auto;html=1;entryX=0.5;entryY=0;entryDx=0;entryDy=0;" edge="1" parent="WIyWlLk6GJQsqaUBKTNV-1" source="4SC3pZGxrb-5CBrwp-Ay-7" target="4SC3pZGxrb-5CBrwp-Ay-8">
          <mxGeometry relative="1" as="geometry" />
        </mxCell>
        <mxCell id="4SC3pZGxrb-5CBrwp-Ay-15" style="edgeStyle=orthogonalEdgeStyle;rounded=0;orthogonalLoop=1;jettySize=auto;html=1;entryX=1;entryY=0.5;entryDx=0;entryDy=0;" edge="1" parent="WIyWlLk6GJQsqaUBKTNV-1" source="4SC3pZGxrb-5CBrwp-Ay-7" target="4SC3pZGxrb-5CBrwp-Ay-5">
          <mxGeometry relative="1" as="geometry">
            <Array as="points">
              <mxPoint x="360" y="520" />
              <mxPoint x="360" y="465" />
            </Array>
          </mxGeometry>
        </mxCell>
        <mxCell id="4SC3pZGxrb-5CBrwp-Ay-7" value="ปรับปรุงระบบกับอุปกรณ์" style="rounded=1;whiteSpace=wrap;html=1;" vertex="1" parent="WIyWlLk6GJQsqaUBKTNV-1">
          <mxGeometry x="145" y="510" width="150" height="30" as="geometry" />
        </mxCell>
        <mxCell id="4SC3pZGxrb-5CBrwp-Ay-8" value="วิเคราะห์และสรุปผลดำเนินการ" style="rounded=1;whiteSpace=wrap;html=1;" vertex="1" parent="WIyWlLk6GJQsqaUBKTNV-1">
          <mxGeometry x="145" y="580" width="150" height="30" as="geometry" />
        </mxCell>
      </root>
    </mxGraphModel>
  </diagram>
</mxfile>
